<?xml version="1.0" encoding="UTF-8" standalone="no"?>
<svg
   xmlns:dc="http://purl.org/dc/elements/1.1/"
   xmlns:cc="http://creativecommons.org/ns#"
   xmlns:rdf="http://www.w3.org/1999/02/22-rdf-syntax-ns#"
   xmlns:svg="http://www.w3.org/2000/svg"
   xmlns="http://www.w3.org/2000/svg"
   viewBox="0 0 1244.6667 518.71198"
   height="518.71198"
   width="1244.6667"
   xml:space="preserve"
   id="svg2"
   version="1.1"><metadata
     id="metadata8"><rdf:RDF><cc:Work
         rdf:about=""><dc:format>image/svg+xml</dc:format><dc:type
           rdf:resource="http://purl.org/dc/dcmitype/StillImage" /></cc:Work></rdf:RDF></metadata><defs
     id="defs6"><clipPath
       id="clipPath18"
       clipPathUnits="userSpaceOnUse"><path
         id="path16"
         d="M 0,389.034 H 933.5 V 0 H 0 Z" /></clipPath></defs><g
     transform="matrix(1.3333333,0,0,-1.3333333,0,518.712)"
     id="g10"><g
       id="g12"><g
         clip-path="url(#clipPath18)"
         id="g14"><g
           transform="translate(878.2964,127.4463)"
           id="g20"><path
             id="path22"
             style="fill:#181817;fill-opacity:1;fill-rule:nonzero;stroke:none"
             d="M 0,0 C -2.583,-22.315 -29.627,-17.547 -46.299,-19.552 V 28.296 C -25.411,29.466 3.598,29.461 0,0 m -103.528,-66.504 c -15.236,0.01 -30.41,-0.035 -45.646,0.025 -2.538,0.015 -3.97,-0.427 -5.111,-3.306 -3.451,-8.703 -10.285,-13.703 -19.129,-16.799 -27.497,-10.08 -53.189,12.919 -51.641,41.119 h 121.527 z m -76.911,92.287 c 14.849,-2.643 29.833,-21.135 28.079,-35.365 h -71.308 c 1.864,24.958 22.898,38.988 43.229,35.365 m -159.435,-108.88 h -60.952 c 6.568,6.93 13.864,13.683 15.979,23.09 1.688,9.195 2.648,18.571 3.191,27.913 0.98,19.296 1.588,37.993 -0.291,57.39 h 42.073 z M 20.713,66.229 c -8.804,4.829 -18.612,7.3 -28.903,7.27 -31.667,-0.387 -63.304,0.573 -94.936,-0.382 V 23.009 c -15.879,22.099 -36.214,38.908 -63.901,42.018 -28.236,4.619 -57.053,0.623 -80.851,-16.356 -31.431,-20.813 -43.225,-60.625 -36.948,-96.689 2.356,-12.12 4.296,-24.013 10.517,-34.922 h -14.743 V 73.122 H -463.26 V 0.151 h -47.561 v 73.022 h -366.973 v -47.42 h 62.268 v -153.199 h 59.731 V 25.678 c 6.567,0 12.889,-0.222 19.175,0.13 1.914,0.111 4.392,1.317 5.502,2.829 8.497,11.597 19.97,18.884 32.763,25.039 32.365,14.728 76.745,13.588 104.96,-9.196 27.868,-21.476 34.712,-58.378 36.27,-91.638 h -133.949 c -3.407,-36.803 34.802,-59.063 62.676,-37.155 4.175,3.467 6.919,8.659 11.034,13.985 h 57.892 c -3.332,-8.819 -8.552,-16.271 -9.357,-25.437 -0.235,-10.556 -0.231,-21.119 -0.316,-31.681 h 57.862 v 80.951 h 47.47 c 0.779,-26.899 0.492,-54.038 0.125,-80.951 h 58.797 v 22.154 h 76.529 v -22.154 h 57.862 v 36.827 c 4.472,-4.306 8.798,-8.256 12.883,-12.437 11.528,-11.808 25.693,-18.642 41.516,-22.496 1.528,-0.372 2.93,-1.251 4.392,-1.894 h 53.199 c 4.688,1.567 9.376,3.135 14.069,4.698 17.909,5.965 30.863,17.627 39.476,34.295 0.181,0.342 0.658,0.522 1.517,1.181 v -40.174 h 56.927 v 63.53 c 14.939,-0.111 29.577,0.723 44.4,1.939 25.552,2.98 48.451,21.667 57.325,45.586 V 26.542 C 49.229,44.566 36.928,57.329 20.713,66.229" /></g><g
           transform="translate(213.6504,114.2939)"
           id="g24"><path
             id="path26"
             style="fill:#181817;fill-opacity:1;fill-rule:nonzero;stroke:none"
             d="m 0,0 c 14.15,0 28.3,-0.02 42.451,0.025 1.859,0.005 4.457,-0.738 4.18,2.674 -0.989,12.19 -5.215,22.516 -16.25,29.209 C 19.838,38.3 8.327,39.476 -2.583,35.074 -17.486,29.06 -24.441,16.472 -25.562,0 H 0" /></g><path
           id="path28"
           style="fill:#070809;fill-opacity:1;fill-rule:nonzero;stroke:none"
           d="M 0,209.871 H 1.975 V 389.029 H 0 Z" /><path
           id="path30"
           style="fill:#070809;fill-opacity:1;fill-rule:nonzero;stroke:none"
           d="M 4.839,209.871 H 6.633 V 389.029 H 4.839 Z" /><path
           id="path32"
           style="fill:#070809;fill-opacity:1;fill-rule:nonzero;stroke:none"
           d="m 9.673,389.034 h 6.628 V 224.207 H 9.673 Z" /><path
           id="path34"
           style="fill:#070809;fill-opacity:1;fill-rule:nonzero;stroke:none"
           d="m 19.175,389.034 h 4.301 V 224.207 h -4.301 z" /><path
           id="path36"
           style="fill:#070809;fill-opacity:1;fill-rule:nonzero;stroke:none"
           d="m 28.853,224.207 h 1.794 v 164.827 h -1.794 z" /><path
           id="path38"
           style="fill:#070809;fill-opacity:1;fill-rule:nonzero;stroke:none"
           d="m 38.345,224.207 h 1.794 v 164.827 h -1.794 z" /><path
           id="path40"
           style="fill:#070809;fill-opacity:1;fill-rule:nonzero;stroke:none"
           d="m 43.008,389.034 h 4.301 V 224.207 h -4.301 z" /><path
           id="path42"
           style="fill:#070809;fill-opacity:1;fill-rule:nonzero;stroke:none"
           d="m 52.686,389.034 h 4.121 V 224.207 h -4.121 z" /><path
           id="path44"
           style="fill:#070809;fill-opacity:1;fill-rule:nonzero;stroke:none"
           d="m 64.515,224.207 h 1.794 v 164.827 h -1.794 z" /><path
           id="path46"
           style="fill:#070809;fill-opacity:1;fill-rule:nonzero;stroke:none"
           d="M 69.349,389.034 H 73.65 V 224.207 h -4.301 z" /><path
           id="path48"
           style="fill:#070809;fill-opacity:1;fill-rule:nonzero;stroke:none"
           d="m 78.851,224.207 h 1.794 v 164.827 h -1.794 z" /><path
           id="path50"
           style="fill:#070809;fill-opacity:1;fill-rule:nonzero;stroke:none"
           d="m 83.685,389.034 h 6.628 V 224.207 h -6.628 z" /><path
           id="path52"
           style="fill:#070809;fill-opacity:1;fill-rule:nonzero;stroke:none"
           d="m 93.187,389.034 h 4.301 V 224.207 h -4.301 z" /><path
           id="path54"
           style="fill:#070809;fill-opacity:1;fill-rule:nonzero;stroke:none"
           d="m 105.191,224.207 h 1.793 v 164.827 h -1.793 z" /><path
           id="path56"
           style="fill:#070809;fill-opacity:1;fill-rule:nonzero;stroke:none"
           d="m 110.03,209.871 h 1.794 v 179.158 h -1.794 z" /><path
           id="path58"
           style="fill:#070809;fill-opacity:1;fill-rule:nonzero;stroke:none"
           d="m 114.689,209.871 h 1.793 v 179.158 h -1.793 z" /><path
           id="path60"
           style="fill:#070809;fill-opacity:1;fill-rule:nonzero;stroke:none"
           d="m 119.527,224.207 h 1.794 v 164.827 h -1.794 z" /><path
           id="path62"
           style="fill:#070809;fill-opacity:1;fill-rule:nonzero;stroke:none"
           d="m 124.366,389.034 h 6.452 V 224.207 h -6.452 z" /><path
           id="path64"
           style="fill:#070809;fill-opacity:1;fill-rule:nonzero;stroke:none"
           d="m 136.195,224.207 h 1.794 v 164.827 h -1.794 z" /><path
           id="path66"
           style="fill:#070809;fill-opacity:1;fill-rule:nonzero;stroke:none"
           d="m 141.034,224.207 h 1.794 v 164.827 h -1.794 z" /><path
           id="path68"
           style="fill:#070809;fill-opacity:1;fill-rule:nonzero;stroke:none"
           d="m 153.044,389.034 h 4.12 V 224.207 h -4.12 z" /><path
           id="path70"
           style="fill:#070809;fill-opacity:1;fill-rule:nonzero;stroke:none"
           d="m 162.535,389.034 h 4.121 V 224.207 h -4.121 z" /><path
           id="path72"
           style="fill:#070809;fill-opacity:1;fill-rule:nonzero;stroke:none"
           d="m 169.706,389.034 h 6.627 V 224.207 h -6.627 z" /><path
           id="path74"
           style="fill:#070809;fill-opacity:1;fill-rule:nonzero;stroke:none"
           d="m 181.71,224.207 h 1.794 v 164.827 h -1.794 z" /><path
           id="path76"
           style="fill:#070809;fill-opacity:1;fill-rule:nonzero;stroke:none"
           d="m 186.369,389.034 h 6.627 V 224.207 h -6.627 z" /><path
           id="path78"
           style="fill:#070809;fill-opacity:1;fill-rule:nonzero;stroke:none"
           d="m 198.378,224.207 h 1.794 v 164.827 h -1.794 z" /><path
           id="path80"
           style="fill:#070809;fill-opacity:1;fill-rule:nonzero;stroke:none"
           d="m 203.212,224.207 h 1.794 v 164.827 h -1.794 z" /><path
           id="path82"
           style="fill:#070809;fill-opacity:1;fill-rule:nonzero;stroke:none"
           d="m 210.382,224.207 h 1.794 v 164.827 h -1.794 z" /><path
           id="path84"
           style="fill:#070809;fill-opacity:1;fill-rule:nonzero;stroke:none"
           d="m 219.879,209.871 h 1.794 v 179.158 h -1.794 z" /><path
           id="path86"
           style="fill:#070809;fill-opacity:1;fill-rule:nonzero;stroke:none"
           d="m 224.718,209.871 h 1.794 v 179.158 h -1.794 z" /><path
           id="path88"
           style="fill:#070809;fill-opacity:1;fill-rule:nonzero;stroke:none"
           d="m 255.722,224.207 h 1.794 v 143.149 h -1.794 z" /><path
           id="path90"
           style="fill:#070809;fill-opacity:1;fill-rule:nonzero;stroke:none"
           d="m 260.561,367.352 h 4.121 V 224.203 h -4.121 z" /><path
           id="path92"
           style="fill:#070809;fill-opacity:1;fill-rule:nonzero;stroke:none"
           d="m 272.39,367.352 h 4.301 V 224.203 h -4.301 z" /><path
           id="path94"
           style="fill:#070809;fill-opacity:1;fill-rule:nonzero;stroke:none"
           d="m 279.555,224.207 h 1.794 v 143.149 h -1.794 z" /><path
           id="path96"
           style="fill:#070809;fill-opacity:1;fill-rule:nonzero;stroke:none"
           d="m 284.394,224.207 h 1.794 v 143.149 h -1.794 z" /><path
           id="path98"
           style="fill:#070809;fill-opacity:1;fill-rule:nonzero;stroke:none"
           d="m 289.233,367.352 h 8.959 V 224.203 h -8.959 z" /><path
           id="path100"
           style="fill:#070809;fill-opacity:1;fill-rule:nonzero;stroke:none"
           d="m 301.062,224.207 h 1.794 v 143.149 h -1.794 z" /><path
           id="path102"
           style="fill:#070809;fill-opacity:1;fill-rule:nonzero;stroke:none"
           d="m 305.901,224.207 h 1.794 v 143.149 h -1.794 z" /><path
           id="path104"
           style="fill:#070809;fill-opacity:1;fill-rule:nonzero;stroke:none"
           d="m 310.735,224.207 h 1.794 v 143.149 h -1.794 z" /><path
           id="path106"
           style="fill:#070809;fill-opacity:1;fill-rule:nonzero;stroke:none"
           d="m 317.91,367.352 h 6.452 V 224.203 h -6.452 z" /><path
           id="path108"
           style="fill:#070809;fill-opacity:1;fill-rule:nonzero;stroke:none"
           d="m 327.402,224.207 h 1.794 v 143.149 h -1.794 z" /><path
           id="path110"
           style="fill:#070809;fill-opacity:1;fill-rule:nonzero;stroke:none"
           d="m 334.573,367.352 h 4.121 V 224.203 h -4.121 z" /><path
           id="path112"
           style="fill:#070809;fill-opacity:1;fill-rule:nonzero;stroke:none"
           d="m 341.743,367.352 h 4.121 V 224.203 h -4.121 z" /><path
           id="path114"
           style="fill:#070809;fill-opacity:1;fill-rule:nonzero;stroke:none"
           d="m 348.909,224.207 h 1.794 v 143.149 h -1.794 z" /><path
           id="path116"
           style="fill:#070809;fill-opacity:1;fill-rule:nonzero;stroke:none"
           d="m 358.406,367.352 h 4.301 V 224.203 h -4.301 z" /><path
           id="path118"
           style="fill:#070809;fill-opacity:1;fill-rule:nonzero;stroke:none"
           d="m 365.571,224.207 h 1.794 v 143.149 h -1.794 z" /></g></g></g></svg>